<mxfile host="app.diagrams.net" modified="2022-01-08T06:17:36.562Z" agent="5.0 (Windows NT 10.0; Win64; x64) AppleWebKit/537.36 (KHTML, like Gecko) Chrome/96.0.4664.110 Safari/537.36" etag="zQx8o_mfX2VzqrzQgJ0G" version="16.1.4" type="github">
  <diagram id="C5RBs43oDa-KdzZeNtuy" name="Page-1">
    <mxGraphModel dx="1695" dy="1632" grid="1" gridSize="10" guides="1" tooltips="1" connect="1" arrows="1" fold="1" page="1" pageScale="1" pageWidth="827" pageHeight="1169" math="0" shadow="0">
      <root>
        <mxCell id="WIyWlLk6GJQsqaUBKTNV-0" />
        <mxCell id="WIyWlLk6GJQsqaUBKTNV-1" parent="WIyWlLk6GJQsqaUBKTNV-0" />
        <mxCell id="5a3WjXs7kGI3VwHTFscA-4" style="edgeStyle=orthogonalEdgeStyle;rounded=0;orthogonalLoop=1;jettySize=auto;html=1;exitX=0.5;exitY=1;exitDx=0;exitDy=0;entryX=0.5;entryY=0;entryDx=0;entryDy=0;" edge="1" parent="WIyWlLk6GJQsqaUBKTNV-1">
          <mxGeometry relative="1" as="geometry">
            <mxPoint x="212" y="120" as="sourcePoint" />
            <mxPoint x="222" y="150" as="targetPoint" />
          </mxGeometry>
        </mxCell>
        <mxCell id="WIyWlLk6GJQsqaUBKTNV-3" value="Program selects random word" style="rounded=1;whiteSpace=wrap;html=1;fontSize=12;glass=0;strokeWidth=1;shadow=0;" parent="WIyWlLk6GJQsqaUBKTNV-1" vertex="1">
          <mxGeometry x="160" y="80" width="120" height="40" as="geometry" />
        </mxCell>
        <mxCell id="5a3WjXs7kGI3VwHTFscA-9" value="" style="edgeStyle=orthogonalEdgeStyle;rounded=0;orthogonalLoop=1;jettySize=auto;html=1;" edge="1" parent="WIyWlLk6GJQsqaUBKTNV-1">
          <mxGeometry relative="1" as="geometry">
            <mxPoint x="226" y="282" as="sourcePoint" />
            <mxPoint x="226" y="330" as="targetPoint" />
          </mxGeometry>
        </mxCell>
        <mxCell id="WIyWlLk6GJQsqaUBKTNV-7" value="User guesses a letter" style="rounded=1;whiteSpace=wrap;html=1;fontSize=12;glass=0;strokeWidth=1;shadow=0;" parent="WIyWlLk6GJQsqaUBKTNV-1" vertex="1">
          <mxGeometry x="170" y="242" width="120" height="40" as="geometry" />
        </mxCell>
        <mxCell id="5a3WjXs7kGI3VwHTFscA-1" style="edgeStyle=orthogonalEdgeStyle;rounded=0;orthogonalLoop=1;jettySize=auto;html=1;entryX=0.5;entryY=0;entryDx=0;entryDy=0;" edge="1" parent="WIyWlLk6GJQsqaUBKTNV-1" source="5a3WjXs7kGI3VwHTFscA-0" target="WIyWlLk6GJQsqaUBKTNV-3">
          <mxGeometry relative="1" as="geometry" />
        </mxCell>
        <mxCell id="5a3WjXs7kGI3VwHTFscA-0" value="Start" style="ellipse;whiteSpace=wrap;html=1;" vertex="1" parent="WIyWlLk6GJQsqaUBKTNV-1">
          <mxGeometry x="180" y="-10" width="80" height="50" as="geometry" />
        </mxCell>
        <mxCell id="5a3WjXs7kGI3VwHTFscA-6" value="" style="edgeStyle=orthogonalEdgeStyle;rounded=0;orthogonalLoop=1;jettySize=auto;html=1;" edge="1" parent="WIyWlLk6GJQsqaUBKTNV-1">
          <mxGeometry relative="1" as="geometry">
            <mxPoint x="224" y="200" as="sourcePoint" />
            <mxPoint x="224" y="242" as="targetPoint" />
          </mxGeometry>
        </mxCell>
        <mxCell id="5a3WjXs7kGI3VwHTFscA-2" value="Program generates blank spaces equal to the letters in the word" style="rounded=1;whiteSpace=wrap;html=1;fontSize=12;glass=0;strokeWidth=1;shadow=0;" vertex="1" parent="WIyWlLk6GJQsqaUBKTNV-1">
          <mxGeometry x="150" y="150" width="160" height="50" as="geometry" />
        </mxCell>
        <mxCell id="5a3WjXs7kGI3VwHTFscA-8" value="&lt;font style=&quot;font-size: 12px&quot;&gt;Is guessed letter in&lt;br&gt;&amp;nbsp;the word?&lt;/font&gt;" style="rhombus;whiteSpace=wrap;html=1;" vertex="1" parent="WIyWlLk6GJQsqaUBKTNV-1">
          <mxGeometry x="152" y="330" width="150" height="80" as="geometry" />
        </mxCell>
        <mxCell id="5a3WjXs7kGI3VwHTFscA-10" value="" style="endArrow=classic;html=1;rounded=0;fontSize=12;" edge="1" parent="WIyWlLk6GJQsqaUBKTNV-1">
          <mxGeometry width="50" height="50" relative="1" as="geometry">
            <mxPoint x="302" y="370" as="sourcePoint" />
            <mxPoint x="380" y="510" as="targetPoint" />
            <Array as="points">
              <mxPoint x="380" y="370" />
            </Array>
          </mxGeometry>
        </mxCell>
        <mxCell id="5a3WjXs7kGI3VwHTFscA-11" value="Yes" style="edgeLabel;html=1;align=center;verticalAlign=middle;resizable=0;points=[];fontSize=12;" vertex="1" connectable="0" parent="5a3WjXs7kGI3VwHTFscA-10">
          <mxGeometry x="-0.5138" y="-1" relative="1" as="geometry">
            <mxPoint as="offset" />
          </mxGeometry>
        </mxCell>
        <mxCell id="5a3WjXs7kGI3VwHTFscA-12" value="" style="endArrow=classic;html=1;rounded=0;fontSize=12;exitX=0;exitY=0.5;exitDx=0;exitDy=0;" edge="1" parent="WIyWlLk6GJQsqaUBKTNV-1" source="5a3WjXs7kGI3VwHTFscA-8">
          <mxGeometry width="50" height="50" relative="1" as="geometry">
            <mxPoint x="20" y="370" as="sourcePoint" />
            <mxPoint x="80" y="510" as="targetPoint" />
            <Array as="points">
              <mxPoint x="80" y="370" />
            </Array>
          </mxGeometry>
        </mxCell>
        <mxCell id="5a3WjXs7kGI3VwHTFscA-13" value="No" style="edgeLabel;html=1;align=center;verticalAlign=middle;resizable=0;points=[];fontSize=12;" vertex="1" connectable="0" parent="5a3WjXs7kGI3VwHTFscA-12">
          <mxGeometry x="-0.5138" y="-1" relative="1" as="geometry">
            <mxPoint as="offset" />
          </mxGeometry>
        </mxCell>
        <mxCell id="5a3WjXs7kGI3VwHTFscA-19" style="edgeStyle=orthogonalEdgeStyle;rounded=0;orthogonalLoop=1;jettySize=auto;html=1;exitX=0.5;exitY=1;exitDx=0;exitDy=0;entryX=0.5;entryY=0;entryDx=0;entryDy=0;fontSize=12;" edge="1" parent="WIyWlLk6GJQsqaUBKTNV-1" source="5a3WjXs7kGI3VwHTFscA-14" target="5a3WjXs7kGI3VwHTFscA-16">
          <mxGeometry relative="1" as="geometry" />
        </mxCell>
        <mxCell id="5a3WjXs7kGI3VwHTFscA-14" value="Letter replaces the corresponding blank spaces" style="rounded=1;whiteSpace=wrap;html=1;fontSize=12;" vertex="1" parent="WIyWlLk6GJQsqaUBKTNV-1">
          <mxGeometry x="320" y="510" width="120" height="60" as="geometry" />
        </mxCell>
        <mxCell id="5a3WjXs7kGI3VwHTFscA-21" value="" style="edgeStyle=orthogonalEdgeStyle;rounded=0;orthogonalLoop=1;jettySize=auto;html=1;fontSize=12;" edge="1" parent="WIyWlLk6GJQsqaUBKTNV-1" source="5a3WjXs7kGI3VwHTFscA-15" target="5a3WjXs7kGI3VwHTFscA-20">
          <mxGeometry relative="1" as="geometry" />
        </mxCell>
        <mxCell id="5a3WjXs7kGI3VwHTFscA-15" value="User losses life&amp;nbsp;" style="rounded=1;whiteSpace=wrap;html=1;fontSize=12;" vertex="1" parent="WIyWlLk6GJQsqaUBKTNV-1">
          <mxGeometry x="20" y="510" width="120" height="60" as="geometry" />
        </mxCell>
        <mxCell id="5a3WjXs7kGI3VwHTFscA-32" style="edgeStyle=orthogonalEdgeStyle;rounded=0;orthogonalLoop=1;jettySize=auto;html=1;exitX=0.5;exitY=1;exitDx=0;exitDy=0;entryX=1;entryY=0.5;entryDx=0;entryDy=0;fontSize=12;" edge="1" parent="WIyWlLk6GJQsqaUBKTNV-1" source="5a3WjXs7kGI3VwHTFscA-16" target="5a3WjXs7kGI3VwHTFscA-27">
          <mxGeometry relative="1" as="geometry" />
        </mxCell>
        <mxCell id="5a3WjXs7kGI3VwHTFscA-34" style="edgeStyle=orthogonalEdgeStyle;rounded=0;orthogonalLoop=1;jettySize=auto;html=1;entryX=1;entryY=0.5;entryDx=0;entryDy=0;fontSize=12;" edge="1" parent="WIyWlLk6GJQsqaUBKTNV-1" source="5a3WjXs7kGI3VwHTFscA-16" target="WIyWlLk6GJQsqaUBKTNV-7">
          <mxGeometry relative="1" as="geometry">
            <Array as="points">
              <mxPoint x="460" y="660" />
              <mxPoint x="460" y="262" />
            </Array>
          </mxGeometry>
        </mxCell>
        <mxCell id="5a3WjXs7kGI3VwHTFscA-16" value="Are all blanks &lt;br&gt;filled?" style="rhombus;whiteSpace=wrap;html=1;fontSize=12;" vertex="1" parent="WIyWlLk6GJQsqaUBKTNV-1">
          <mxGeometry x="325" y="620" width="110" height="80" as="geometry" />
        </mxCell>
        <mxCell id="5a3WjXs7kGI3VwHTFscA-25" style="edgeStyle=orthogonalEdgeStyle;rounded=0;orthogonalLoop=1;jettySize=auto;html=1;exitX=0;exitY=0.5;exitDx=0;exitDy=0;entryX=0;entryY=0.5;entryDx=0;entryDy=0;fontSize=12;" edge="1" parent="WIyWlLk6GJQsqaUBKTNV-1" source="5a3WjXs7kGI3VwHTFscA-20" target="WIyWlLk6GJQsqaUBKTNV-7">
          <mxGeometry relative="1" as="geometry" />
        </mxCell>
        <mxCell id="5a3WjXs7kGI3VwHTFscA-30" style="edgeStyle=orthogonalEdgeStyle;rounded=0;orthogonalLoop=1;jettySize=auto;html=1;exitX=0.5;exitY=1;exitDx=0;exitDy=0;entryX=0;entryY=0.5;entryDx=0;entryDy=0;fontSize=12;" edge="1" parent="WIyWlLk6GJQsqaUBKTNV-1" source="5a3WjXs7kGI3VwHTFscA-20" target="5a3WjXs7kGI3VwHTFscA-27">
          <mxGeometry relative="1" as="geometry" />
        </mxCell>
        <mxCell id="5a3WjXs7kGI3VwHTFscA-20" value="Are all lives lost?" style="rhombus;whiteSpace=wrap;html=1;fontSize=12;" vertex="1" parent="WIyWlLk6GJQsqaUBKTNV-1">
          <mxGeometry x="25" y="620" width="110" height="80" as="geometry" />
        </mxCell>
        <mxCell id="5a3WjXs7kGI3VwHTFscA-26" value="No" style="text;html=1;align=center;verticalAlign=middle;resizable=0;points=[];autosize=1;strokeColor=none;fillColor=none;fontSize=12;" vertex="1" parent="WIyWlLk6GJQsqaUBKTNV-1">
          <mxGeometry x="5" y="660" width="30" height="20" as="geometry" />
        </mxCell>
        <mxCell id="5a3WjXs7kGI3VwHTFscA-37" style="edgeStyle=orthogonalEdgeStyle;rounded=0;orthogonalLoop=1;jettySize=auto;html=1;entryX=0.5;entryY=0;entryDx=0;entryDy=0;fontSize=12;" edge="1" parent="WIyWlLk6GJQsqaUBKTNV-1" source="5a3WjXs7kGI3VwHTFscA-27" target="5a3WjXs7kGI3VwHTFscA-36">
          <mxGeometry relative="1" as="geometry" />
        </mxCell>
        <mxCell id="5a3WjXs7kGI3VwHTFscA-27" value="Game Over" style="rounded=1;whiteSpace=wrap;html=1;fontSize=12;" vertex="1" parent="WIyWlLk6GJQsqaUBKTNV-1">
          <mxGeometry x="170" y="740" width="100" height="50" as="geometry" />
        </mxCell>
        <mxCell id="5a3WjXs7kGI3VwHTFscA-31" value="Yes" style="text;html=1;align=center;verticalAlign=middle;resizable=0;points=[];autosize=1;strokeColor=none;fillColor=none;fontSize=12;" vertex="1" parent="WIyWlLk6GJQsqaUBKTNV-1">
          <mxGeometry x="80" y="720" width="40" height="20" as="geometry" />
        </mxCell>
        <mxCell id="5a3WjXs7kGI3VwHTFscA-33" value="Yes" style="text;html=1;align=center;verticalAlign=middle;resizable=0;points=[];autosize=1;strokeColor=none;fillColor=none;fontSize=12;" vertex="1" parent="WIyWlLk6GJQsqaUBKTNV-1">
          <mxGeometry x="340" y="720" width="40" height="20" as="geometry" />
        </mxCell>
        <mxCell id="5a3WjXs7kGI3VwHTFscA-35" value="No" style="text;html=1;align=center;verticalAlign=middle;resizable=0;points=[];autosize=1;strokeColor=none;fillColor=none;fontSize=12;" vertex="1" parent="WIyWlLk6GJQsqaUBKTNV-1">
          <mxGeometry x="435" y="660" width="30" height="20" as="geometry" />
        </mxCell>
        <mxCell id="5a3WjXs7kGI3VwHTFscA-36" value="End" style="ellipse;whiteSpace=wrap;html=1;fontSize=12;" vertex="1" parent="WIyWlLk6GJQsqaUBKTNV-1">
          <mxGeometry x="180" y="840" width="80" height="50" as="geometry" />
        </mxCell>
      </root>
    </mxGraphModel>
  </diagram>
</mxfile>
